<?xml version="1.0" encoding="UTF-8" standalone="no"?><!-- Generator: Gravit.io --><svg xmlns="http://www.w3.org/2000/svg" xmlns:xlink="http://www.w3.org/1999/xlink" style="isolation:isolate" viewBox="100 528.027 159.333 143" width="159.333pt" height="143pt"><g><path d=" M 181.599 528.337 L 176.414 529.674 L 112.541 546.146 L 107.357 547.483 C 102.117 548.841 98.965 554.183 100.311 559.426 L 122.791 646.602 C 124.149 651.841 129.492 654.993 134.734 653.648 L 134.748 653.644 L 208.963 634.506 L 208.977 634.502 C 214.216 633.145 217.368 627.802 216.023 622.559 L 193.542 535.383 C 192.184 530.144 186.841 526.992 181.599 528.337 Z " fill="rgb(242,242,242)"/><path d=" M 182.304 531.071 L 176.163 532.654 L 114.202 548.633 L 108.061 550.216 C 104.33 551.183 102.085 554.988 103.044 558.721 L 125.525 645.897 C 126.491 649.628 130.296 651.873 134.029 650.914 L 134.043 650.911 L 208.258 631.772 L 208.272 631.769 C 212.003 630.802 214.248 626.997 213.289 623.264 L 190.808 536.088 C 189.842 532.357 186.037 530.112 182.304 531.071 L 182.304 531.071 Z " fill="rgb(255,255,255)"/><path d=" M 177.667 559.3 L 140.123 568.982 C 139.25 569.207 138.36 568.682 138.134 567.809 C 137.909 566.936 138.435 566.045 139.308 565.82 L 176.852 556.138 C 177.724 555.914 178.614 556.439 178.839 557.312 C 179.064 558.185 178.54 559.075 177.667 559.3 L 177.667 559.3 Z " fill="rgb(242,242,242)"/><path d=" M 185.565 562.955 L 141.499 574.318 C 140.626 574.544 139.736 574.018 139.511 573.145 C 139.285 572.272 139.811 571.381 140.684 571.156 L 184.75 559.793 C 185.623 559.567 186.513 560.093 186.738 560.966 C 186.964 561.839 186.438 562.73 185.565 562.955 L 185.565 562.955 Z " fill="rgb(242,242,242)"/><path d=" M 183.834 583.214 L 146.29 592.896 C 145.725 593.042 145.126 592.875 144.717 592.459 C 144.308 592.042 144.153 591.439 144.309 590.877 C 144.466 590.315 144.91 589.879 145.475 589.734 L 183.018 580.052 C 183.892 579.827 184.782 580.352 185.007 581.225 C 185.232 582.099 184.707 582.989 183.834 583.214 L 183.834 583.214 Z " fill="rgb(242,242,242)"/><path d=" M 191.732 586.868 L 147.666 598.232 C 147.101 598.378 146.502 598.211 146.093 597.795 C 145.684 597.378 145.529 596.776 145.685 596.214 C 145.842 595.652 146.286 595.216 146.851 595.07 L 190.916 583.706 C 191.79 583.481 192.68 584.006 192.905 584.88 C 193.13 585.753 192.605 586.643 191.732 586.868 L 191.732 586.868 Z " fill="rgb(242,242,242)"/><path d=" M 190.001 607.128 L 152.457 616.81 C 151.584 617.034 150.694 616.509 150.469 615.636 C 150.244 614.763 150.769 613.873 151.642 613.648 L 189.185 603.966 C 190.059 603.741 190.949 604.266 191.174 605.139 C 191.399 606.012 190.874 606.903 190.001 607.128 L 190.001 607.128 Z " fill="rgb(242,242,242)"/><path d=" M 197.899 610.782 L 153.833 622.146 C 153.268 622.292 152.668 622.126 152.259 621.709 C 151.85 621.293 151.694 620.689 151.851 620.127 C 152.007 619.565 152.452 619.129 153.018 618.984 L 197.083 607.62 C 197.957 607.395 198.847 607.92 199.072 608.793 C 199.297 609.667 198.772 610.557 197.899 610.782 L 197.899 610.782 Z " fill="rgb(242,242,242)"/><path d=" M 133.714 578.91 L 120.428 582.336 C 120.009 582.443 119.582 582.192 119.474 581.773 L 116.424 569.946 C 116.317 569.528 116.568 569.101 116.987 568.993 L 130.273 565.567 C 130.692 565.459 131.118 565.711 131.227 566.129 L 134.277 577.956 C 134.384 578.375 134.132 578.801 133.714 578.91 L 133.714 578.91 Z " fill="rgb(230,230,230)"/><path d=" M 139.881 602.823 L 126.594 606.25 C 126.176 606.357 125.749 606.105 125.641 605.687 L 122.591 593.86 C 122.483 593.442 122.735 593.015 123.154 592.907 L 136.44 589.48 C 136.859 589.373 137.285 589.624 137.394 590.043 L 140.443 601.87 C 140.551 602.288 140.299 602.715 139.881 602.823 L 139.881 602.823 Z " fill="rgb(230,230,230)"/><path d=" M 146.048 626.737 L 132.761 630.163 C 132.343 630.271 131.916 630.019 131.808 629.601 L 128.758 617.774 C 128.65 617.355 128.902 616.929 129.32 616.82 L 142.607 613.394 C 143.025 613.286 143.452 613.538 143.56 613.957 L 146.61 625.783 C 146.718 626.202 146.466 626.629 146.048 626.737 L 146.048 626.737 Z " fill="rgb(230,230,230)"/><path d=" M 233.379 550.435 L 156.708 550.435 C 151.295 550.442 146.909 554.828 146.903 560.24 L 146.903 650.268 C 146.909 655.681 151.295 660.067 156.708 660.073 L 233.379 660.073 C 238.792 660.067 243.178 655.681 243.184 650.268 L 243.184 560.24 C 243.178 554.828 238.792 550.442 233.379 550.435 L 233.379 550.435 Z " fill="rgb(230,230,230)"/><path d=" M 233.379 553.258 L 156.708 553.258 C 152.853 553.262 149.73 556.386 149.726 560.24 L 149.726 650.268 C 149.73 654.123 152.853 657.246 156.708 657.251 L 233.379 657.251 C 237.234 657.246 240.357 654.123 240.361 650.268 L 240.361 560.24 C 240.357 556.386 237.234 553.262 233.379 553.258 L 233.379 553.258 Z " fill="rgb(255,255,255)"/><circle vector-effect="non-scaling-stroke" cx="241.43404767675116" cy="653.1282070513132" r="17.898657818448797" fill="rgb(0,102,255)"/><path d=" M 249.994 650.794 L 243.769 650.794 L 243.769 644.568 C 243.769 643.279 242.723 642.233 241.434 642.233 C 240.145 642.233 239.099 643.279 239.099 644.568 L 239.099 650.794 L 232.874 650.794 C 231.584 650.794 230.539 651.839 230.539 653.128 C 230.539 654.418 231.584 655.463 232.874 655.463 L 239.099 655.463 L 239.099 661.688 C 239.099 662.978 240.145 664.023 241.434 664.023 C 242.723 664.023 243.769 662.978 243.769 661.688 L 243.769 655.463 L 249.994 655.463 C 251.284 655.463 252.329 654.418 252.329 653.128 C 252.329 651.839 251.284 650.794 249.994 650.794 L 249.994 650.794 Z " fill="rgb(255,255,255)"/><path d=" M 221.84 602.728 L 183.068 602.728 C 182.484 602.729 181.945 602.418 181.652 601.912 C 181.36 601.407 181.36 600.784 181.652 600.278 C 181.945 599.773 182.484 599.462 183.068 599.463 L 221.84 599.463 C 222.741 599.464 223.471 600.194 223.471 601.095 C 223.471 601.996 222.741 602.727 221.84 602.728 L 221.84 602.728 Z " fill="rgb(230,230,230)"/><path d=" M 228.575 608.239 L 183.068 608.239 C 182.484 608.239 181.945 607.928 181.652 607.423 C 181.36 606.918 181.36 606.295 181.652 605.789 C 181.945 605.284 182.484 604.973 183.068 604.973 L 228.575 604.973 C 229.477 604.973 230.208 605.704 230.208 606.606 C 230.208 607.508 229.477 608.239 228.575 608.239 Z " fill="rgb(230,230,230)"/><path d=" M 221.84 627.424 L 183.068 627.424 C 182.484 627.425 181.945 627.114 181.652 626.608 C 181.36 626.103 181.36 625.48 181.652 624.974 C 181.945 624.469 182.484 624.158 183.068 624.159 L 221.84 624.159 C 222.742 624.159 223.473 624.89 223.473 625.791 C 223.473 626.693 222.742 627.424 221.84 627.424 L 221.84 627.424 Z " fill="rgb(230,230,230)"/><path d=" M 228.575 632.935 L 183.068 632.935 C 182.484 632.936 181.945 632.624 181.652 632.119 C 181.36 631.614 181.36 630.991 181.652 630.485 C 181.945 629.98 182.484 629.669 183.068 629.669 L 228.575 629.669 C 229.159 629.669 229.699 629.98 229.991 630.485 C 230.283 630.991 230.283 631.614 229.991 632.119 C 229.699 632.624 229.159 632.936 228.575 632.935 L 228.575 632.935 Z " fill="rgb(230,230,230)"/><path d=" M 174.383 610.74 L 160.662 610.74 C 160.23 610.74 159.879 610.39 159.879 609.958 L 159.879 597.744 C 159.879 597.312 160.23 596.961 160.662 596.961 L 174.383 596.961 C 174.815 596.961 175.165 597.312 175.166 597.744 L 175.166 609.958 C 175.165 610.39 174.815 610.74 174.383 610.74 L 174.383 610.74 Z " fill="rgb(230,230,230)"/><path d=" M 174.383 635.437 L 160.662 635.437 C 160.23 635.436 159.879 635.086 159.879 634.654 L 159.879 622.44 C 159.879 622.008 160.23 621.657 160.662 621.657 L 174.383 621.657 C 174.815 621.657 175.165 622.008 175.166 622.44 L 175.166 634.654 C 175.165 635.086 174.815 635.436 174.383 635.437 L 174.383 635.437 Z " fill="rgb(230,230,230)"/><path d=" M 221.883 575.237 L 193.298 575.237 C 192.396 575.237 191.665 574.506 191.665 573.604 C 191.665 572.702 192.396 571.971 193.298 571.971 L 221.883 571.971 C 222.785 571.971 223.516 572.702 223.516 573.604 C 223.516 574.506 222.785 575.237 221.883 575.237 Z " fill="rgb(204,204,204)"/><path d=" M 228.618 580.747 L 193.298 580.747 C 192.715 580.747 192.176 580.436 191.884 579.931 C 191.592 579.426 191.592 578.803 191.884 578.298 C 192.176 577.793 192.715 577.482 193.298 577.482 L 228.618 577.482 C 229.52 577.482 230.251 578.213 230.251 579.114 C 230.251 580.016 229.52 580.747 228.618 580.747 L 228.618 580.747 Z " fill="rgb(204,204,204)"/><path d=" M 186.972 587.426 L 160.619 587.426 C 160.187 587.425 159.836 587.075 159.836 586.643 L 159.836 566.076 C 159.836 565.643 160.187 565.293 160.619 565.293 L 186.972 565.293 C 187.404 565.293 187.754 565.643 187.755 566.076 L 187.755 586.643 C 187.754 587.075 187.404 587.425 186.972 587.426 L 186.972 587.426 Z " fill="rgb(0,102,255)"/></g></svg>