<?xml version="1.0" encoding="UTF-8" standalone="no"?><!-- Generator: Gravit.io --><svg xmlns="http://www.w3.org/2000/svg" xmlns:xlink="http://www.w3.org/1999/xlink" style="isolation:isolate" viewBox="219.889 84.409 638.222 555.591" width="638.222pt" height="555.591pt"><g><path d=" M 858.111 633.112 L 401.242 640 L 219.889 607.858 L 503.005 607.858 L 858.111 633.112 L 858.111 633.112 Z " fill="rgb(230,230,230)"/><circle vector-effect="non-scaling-stroke" cx="745.9984249848951" cy="157.49291530408732" r="73.08391389381563" fill="rgb(255,255,0)"/><path d=" M 349.177 611.678 C 349.177 611.678 350.246 589.278 372.161 591.882" fill="rgb(2,59,145)"/><circle vector-effect="non-scaling-stroke" cx="342.9843877334416" cy="579.3930968511384" r="10.968391511848438" fill="rgb(0,67,168)"/><rect x="341.2" y="597.863" width="3.096" height="21.673" transform="matrix(1,0,0,1,0,0)" fill="rgb(2,59,145)"/><path d=" M 710.387 615.504 C 710.387 615.504 711.456 593.104 733.371 595.708" fill="rgb(2,59,145)"/><circle vector-effect="non-scaling-stroke" cx="704.1949275147444" cy="583.2194829015475" r="10.968391511848381" fill="rgb(0,67,168)"/><rect x="702.41" y="601.69" width="3.096" height="21.673" transform="matrix(1,0,0,1,0,0)" fill="rgb(2,59,145)"/><path d=" M 763.191 619.331 C 763.191 619.331 764.26 596.931 786.175 599.534" fill="rgb(2,59,145)"/><circle vector-effect="non-scaling-stroke" cx="756.9990090005599" cy="587.0458617629208" r="10.968391511848381" fill="rgb(0,67,168)"/><rect x="755.214" y="605.516" width="3.096" height="21.673" transform="matrix(1,0,0,1,0,0)" fill="rgb(2,59,145)"/><path d=" M 435.653 600.964 C 435.653 600.964 436.722 578.564 458.637 581.168" fill="rgb(2,59,145)"/><circle vector-effect="non-scaling-stroke" cx="429.4606420201352" cy="568.6792259746433" r="10.968391511848438" fill="rgb(0,67,168)"/><rect x="427.676" y="587.149" width="3.096" height="21.673" transform="matrix(1,0,0,1,0,0)" fill="rgb(2,59,145)"/><path d=" M 272.649 604.791 C 272.649 604.791 273.718 582.39 295.633 584.994" fill="rgb(2,59,145)"/><circle vector-effect="non-scaling-stroke" cx="266.4567314265831" cy="572.5056120250524" r="10.968391511848424" fill="rgb(0,67,168)"/><rect x="264.672" y="590.976" width="3.096" height="21.673" transform="matrix(1,0,0,1,0,0)" fill="rgb(2,59,145)"/><circle vector-effect="non-scaling-stroke" cx="537.8431978173096" cy="446.3639658834404" r="119.50207522667051" fill="rgb(0,102,255)"/><path d=" M 462.609 455.957 C 468.618 448.764 477.507 444.607 486.879 444.607 C 496.251 444.607 505.141 448.764 511.149 455.957 C 521.539 446.038 524.848 430.795 519.505 417.461 C 514.162 404.127 501.244 395.386 486.879 395.386 C 472.515 395.386 459.596 404.127 454.253 417.461 C 448.91 430.795 452.219 446.038 462.609 455.957 L 462.609 455.957 Z " fill="rgb(255,255,255)"/><path d=" M 557.508 455.957 C 563.516 448.764 572.406 444.607 581.778 444.607 C 591.15 444.607 600.039 448.764 606.048 455.957 C 616.438 446.038 619.747 430.795 614.404 417.461 C 609.061 404.127 596.142 395.386 581.778 395.386 C 567.413 395.386 554.494 404.127 549.152 417.461 C 543.809 430.795 547.118 446.038 557.508 455.957 Z " fill="rgb(255,255,255)"/><circle vector-effect="non-scaling-stroke" cx="474.8891678275666" cy="418.56540814241106" r="12.090434704821917" fill="rgb(63,61,86)"/><circle vector-effect="non-scaling-stroke" cx="569.7844448206531" cy="418.56540814241106" r="12.09043470482186" fill="rgb(63,61,86)"/><circle vector-effect="non-scaling-stroke" cx="451.7314132846308" cy="476.2394864873672" r="14.05906598218803" fill="rgb(255,255,0)"/><circle vector-effect="non-scaling-stroke" cx="613.4106864578654" cy="476.2394864873672" r="14.05906598218803" fill="rgb(255,255,0)"/><path d=" M 532.571 448.121 L 522.027 493.813 L 539.6 476.24 L 532.571 448.121 L 532.571 448.121 Z " fill="rgb(255,255,0)"/><path d=" M 586.75 623.86 L 574.779 613.812 L 575.058 623.86 L 571.34 623.86 L 571.043 613.236 L 554.88 623.86 L 548.114 623.86 L 570.922 608.868 L 570.039 577.388 L 569.379 553.613 L 573.088 553.511 L 573.757 577.388 L 574.64 608.84 L 592.531 623.86 L 586.75 623.86 L 586.75 623.86 Z " fill="rgb(0,102,255)"/><path d=" M 530.51 623.86 L 518.539 613.812 L 518.818 623.86 L 515.109 623.86 L 514.812 613.236 L 498.649 623.86 L 491.882 623.86 L 514.682 608.868 L 513.799 577.388 L 513.139 553.613 L 516.856 553.511 L 517.526 577.388 L 518.399 608.84 L 536.291 623.86 L 530.51 623.86 L 530.51 623.86 Z " fill="rgb(0,102,255)"/><path d=" M 539.601 318.075 C 536.322 318.075 533.429 320.622 531.495 324.534 C 529.79 318.651 526.209 314.56 522.027 314.56 C 521.743 314.589 521.46 314.636 521.183 314.702 C 519.575 308.421 515.839 304.016 511.482 304.016 C 505.659 304.016 500.938 311.884 500.938 321.59 C 500.938 331.296 505.659 339.164 511.482 339.164 C 511.767 339.135 512.049 339.088 512.327 339.022 C 513.934 345.303 517.671 349.708 522.027 349.708 C 525.306 349.708 528.198 347.161 530.132 343.249 C 531.837 349.131 535.418 353.223 539.601 353.223 C 545.424 353.223 550.145 345.355 550.145 335.649 C 550.145 325.943 545.424 318.075 539.601 318.075 Z " fill="rgb(5,105,255)"/><path d=" M 425.675 491.65 L 425.675 491.65 C 416.353 491.65 407.413 487.947 400.822 481.355 C 394.231 474.764 390.528 465.824 390.528 456.502 L 390.528 438.928 C 390.528 429.607 394.231 420.667 400.822 414.075 C 407.413 407.484 416.353 403.781 425.675 403.781 L 425.675 403.781 L 425.675 491.65 Z " fill="rgb(0,67,168)"/><path d=" M 650.011 403.781 L 650.011 403.781 C 659.333 403.781 668.273 407.484 674.864 414.075 C 681.456 420.667 685.159 429.607 685.159 438.928 L 685.159 456.502 C 685.159 465.824 681.456 474.764 674.864 481.355 C 668.273 487.947 659.333 491.65 650.011 491.65 L 650.011 491.65 L 650.011 403.781 L 650.011 403.781 Z " fill="rgb(0,67,168)"/><path d=" M 668.429 441.69 L 662.852 441.69 C 662.852 370.966 605.315 313.428 534.59 313.428 C 463.866 313.428 406.328 370.966 406.328 441.69 L 400.751 441.69 C 400.751 367.891 460.791 307.851 534.59 307.851 C 608.39 307.851 668.429 367.891 668.429 441.69 Z " fill="rgb(0,67,168)"/><path d=" M 314.561 348.963 L 314.561 348.963 L 314.561 348.963 L 314.561 348.963 L 314.561 348.963 Z " fill="rgb(63,61,86)"/><path d=" M 343.215 334.209 L 343.216 334.207 L 340.596 333.116 L 329.542 328.443 L 325.579 326.768 L 325.275 327.535 L 325.275 327.535 L 319.953 340.975 L 334.932 347.315 L 335.011 347.386 L 334.001 349.766 C 333.863 349.984 333.745 350.214 333.649 350.453 C 332.942 352.238 334.278 354.014 335.54 354.514 C 336.803 355.014 338.399 353.972 339.106 352.187 C 339.804 350.426 339.122 348.189 337.892 347.648 L 337.893 347.646 L 335.273 346.555 L 326.311 343.071 L 331.432 330.141 L 330.673 329.841 L 325.55 342.775 L 324.442 342.344 L 329.584 329.359 L 329.72 329.417 L 340.255 333.875 L 340.333 333.947 L 339.324 336.327 C 339.186 336.545 339.068 336.774 338.972 337.014 C 338.265 338.799 339.6 340.575 340.863 341.075 C 342.125 341.575 343.722 340.533 344.429 338.748 C 345.127 336.987 344.445 334.749 343.215 334.209 Z " fill="rgb(0,102,255)"/><path d=" M 395.062 367.202 C 389.624 364.093 390.712 357.271 390.712 357.271 C 390.575 352.838 386.914 353.466 386.914 353.466 L 385.581 353.77 C 384.962 353.483 384.28 353.357 383.599 353.403 L 381.572 353.745 C 386.188 354.829 385.809 358.691 385.809 358.691 L 386.456 363.206 L 374.36 358.327 L 375.748 355.052 C 375.94 354.75 376.104 354.43 376.237 354.098 C 377.22 351.618 375.365 349.152 373.611 348.457 C 371.858 347.763 369.64 349.21 368.658 351.69 C 367.689 354.136 368.636 357.243 370.345 357.994 L 370.343 357.997 L 373.982 359.512 L 374.009 359.426 L 395.062 367.202 Z  M 388.919 359.268 L 389.307 363.59 C 387.938 361.669 387.294 359.323 387.491 356.972 C 387.459 356.135 387.177 355.328 386.681 354.653 C 388.235 355.649 389.1 357.432 388.919 359.268 L 388.919 359.268 Z " fill="rgb(0,102,255)"/><path d=" M 302.792 303.283 L 302.793 303.281 L 299.155 301.765 L 283.947 295.853 L 287.785 292.438 C 289.345 290.358 292.269 289.879 294.411 291.353 L 293.22 289.583 C 293.22 289.583 290.981 286.618 287.846 289.755 C 287.846 289.755 283.968 295.472 277.876 294.015 L 298.681 302.821 L 298.79 302.919 L 297.388 306.225 C 297.196 306.528 297.033 306.847 296.899 307.179 C 295.917 309.659 297.772 312.126 299.525 312.82 C 301.279 313.515 303.497 312.067 304.479 309.588 C 305.447 307.142 304.501 304.034 302.792 303.283 Z " fill="rgb(0,102,255)"/><path d=" M 358.469 283.934 L 357.067 287.24 C 356.875 287.543 356.711 287.862 356.578 288.194 C 355.596 290.674 357.45 293.141 359.204 293.835 C 360.957 294.53 363.175 293.082 364.157 290.603 C 365.126 288.157 364.179 285.049 362.471 284.298 L 362.472 284.296 L 358.833 282.78 L 346.385 277.941 L 353.498 259.983 L 352.444 259.566 L 345.329 277.53 L 343.789 276.932 L 350.932 258.897 L 351.12 258.977 L 365.752 265.17 L 365.861 265.269 L 364.459 268.574 C 364.268 268.877 364.104 269.196 363.97 269.528 C 362.988 272.008 364.843 274.475 366.597 275.169 C 368.35 275.864 370.568 274.417 371.55 271.937 C 372.519 269.491 371.572 266.384 369.863 265.633 L 369.865 265.63 L 366.226 264.114 L 351.356 257.828 L 351.356 257.828 L 351.355 257.828 L 350.873 257.624 L 345.369 255.298 L 337.554 275.03 L 358.36 283.836 L 358.469 283.934 Z " fill="rgb(0,102,255)"/><path d=" M 292.537 182.879 L 292.539 182.873 L 286.275 180.265 L 260.095 170.088 L 266.703 164.209 C 266.703 164.209 271.098 158.111 278.109 162.341 L 276.059 159.293 C 276.059 159.293 272.204 154.19 266.808 159.589 C 266.808 159.589 260.132 169.432 249.645 166.923 L 285.46 182.082 L 285.648 182.252 L 283.234 187.942 C 282.904 188.463 282.622 189.013 282.392 189.585 C 280.702 193.854 283.895 198.1 286.913 199.295 C 289.932 200.491 293.75 198 295.44 193.731 C 297.108 189.52 295.478 184.171 292.537 182.879 Z " fill="rgb(0,102,255)"/><path d=" M 311.76 268.366 C 298.759 260.933 301.36 244.62 301.36 244.62 C 301.033 234.023 292.278 235.523 292.278 235.523 L 289.091 236.25 C 287.611 235.563 285.981 235.262 284.353 235.374 L 279.506 236.19 C 290.543 238.783 289.637 248.016 289.637 248.016 L 291.183 258.812 L 262.262 247.145 L 265.583 239.316 C 266.042 238.593 266.433 237.829 266.752 237.035 C 269.1 231.106 264.666 225.208 260.473 223.548 C 256.28 221.887 250.978 225.348 248.63 231.276 C 246.314 237.125 248.577 244.554 252.663 246.349 L 252.659 246.356 L 261.359 249.979 L 261.424 249.774 L 311.76 268.366 Z  M 297.074 249.397 L 298.004 259.766 C 292.544 252.518 293.66 243.906 293.66 243.906 C 293.583 241.906 292.908 239.975 291.723 238.362 C 297.995 242.116 297.073 249.397 297.073 249.397 L 297.074 249.397 Z " fill="rgb(0,102,255)"/></g></svg>