<?xml version="1.0" encoding="UTF-8" standalone="no"?><!-- Generator: Gravit.io --><svg xmlns="http://www.w3.org/2000/svg" xmlns:xlink="http://www.w3.org/1999/xlink" style="isolation:isolate" viewBox="677.049 445.686 251.951 222.155" width="251.951pt" height="222.155pt"><g><path d="M 767.263 510 L 859.923 510 C 865.536 510 870.093 514.557 870.093 520.17 L 870.093 647.83 C 870.093 653.443 865.536 658 859.923 658 L 767.263 658 C 761.65 658 757.093 653.443 757.093 647.83 L 757.093 520.17 C 757.093 514.557 761.65 510 767.263 510 Z" style="stroke:none;fill:#FFFFFF;stroke-miterlimit:10;"/><path d="M 767.263 510 L 859.923 510 C 865.536 510 870.093 514.557 870.093 520.17 L 870.093 647.83 C 870.093 653.443 865.536 658 859.923 658 L 767.263 658 C 761.65 658 757.093 653.443 757.093 647.83 L 757.093 520.17 C 757.093 514.557 761.65 510 767.263 510 Z" style="fill:none;stroke:#D9D9D9;stroke-width:4;stroke-linecap:square;stroke-miterlimit:2;"/><path d=" M 894.549 517.836 L 889.675 515.191 C 887.921 514.239 885.073 514.239 883.319 515.191 L 878.445 517.836 C 876.691 518.788 875.562 517.968 875.926 516.006 L 876.935 510.553 C 877.299 508.591 876.419 505.882 874.971 504.508 L 870.949 500.691 C 869.502 499.317 869.933 497.989 871.912 497.729 L 877.41 497.004 C 879.388 496.743 881.692 495.069 882.552 493.268 L 884.94 488.263 C 885.799 486.462 887.195 486.462 888.054 488.263 L 890.442 493.268 C 891.302 495.069 893.606 496.743 895.584 497.004 L 901.082 497.729 C 903.06 497.989 903.492 499.317 902.044 500.691 L 898.023 504.508 C 896.575 505.882 895.695 508.591 896.058 510.553 L 897.068 516.006 C 897.432 517.968 896.303 518.788 894.549 517.836 Z " fill="rgb(0,102,255)"/><path d=" M 742.049 629.221 L 738.535 629.127 C 737.27 629.093 735.66 629.911 734.943 630.953 L 732.948 633.849 C 732.231 634.891 731.357 634.752 730.998 633.538 L 730.002 630.167 C 729.643 628.953 728.368 627.675 727.155 627.315 L 723.785 626.313 C 722.572 625.952 722.434 625.078 723.477 624.362 L 726.376 622.373 C 727.42 621.657 728.241 620.049 728.209 618.784 L 728.12 615.269 C 728.088 614.004 728.877 613.603 729.88 614.374 L 732.668 616.516 C 733.672 617.287 735.455 617.571 736.648 617.15 L 739.963 615.98 C 741.156 615.559 741.781 616.185 741.358 617.377 L 740.182 620.691 C 739.759 621.883 740.04 623.667 740.809 624.671 L 742.947 627.463 C 743.716 628.467 743.314 629.255 742.049 629.221 Z " fill="rgb(0,102,255)"/><circle vector-effect="non-scaling-stroke" cx="798.046526865628" cy="486.91250006104997" r="9.046526865628039" fill="rgb(0,102,255)"/><circle vector-effect="non-scaling-stroke" cx="870.0930537312562" cy="654.4203787036249" r="13.42037870362492" fill="rgb(0,102,255)"/><path d=" M 768.539 574.71 L 760.03 570.922 C 758.207 570.11 755.247 568.792 753.424 567.981 L 744.915 564.192 C 743.092 563.381 742.923 561.769 744.537 560.596 L 752.072 555.122 C 753.687 553.949 756.308 552.044 757.923 550.871 L 765.458 545.397 C 767.072 544.224 768.552 544.883 768.761 546.867 L 769.734 556.13 C 769.943 558.115 770.282 561.337 770.49 563.322 L 771.464 572.585 C 771.672 574.57 770.362 575.522 768.539 574.71 Z " fill="rgb(0,102,255)"/><path d=" M 910.211 601.25 L 907.772 597.197 C 907.249 596.328 906.4 594.918 905.878 594.049 L 903.439 589.995 C 902.916 589.126 903.314 588.406 904.328 588.388 L 909.058 588.302 C 910.072 588.284 911.718 588.254 912.731 588.236 L 917.462 588.151 C 918.475 588.132 918.9 588.838 918.409 589.724 L 916.118 593.864 C 915.627 594.751 914.829 596.191 914.339 597.078 L 912.047 601.217 C 911.556 602.104 910.734 602.119 910.211 601.25 Z " fill="rgb(0,102,255)"/><path d="M 774.639 528.027 L 857.846 528.027 C 859.587 528.027 861 529.44 861 531.181 L 861 532.873 C 861 534.614 859.587 536.027 857.846 536.027 L 774.639 536.027 C 772.899 536.027 771.486 534.614 771.486 532.873 L 771.486 531.181 C 771.486 529.44 772.899 528.027 774.639 528.027 Z" style="stroke:none;fill:#E0E2EA;stroke-linecap:square;stroke-miterlimit:2;"/><path d="M 774.441 550.085 L 858.045 550.085 C 859.676 550.085 861 551.409 861 553.04 L 861 554.153 C 861 555.784 859.676 557.108 858.045 557.108 L 774.441 557.108 C 772.81 557.108 771.486 555.784 771.486 554.153 L 771.486 553.04 C 771.486 551.409 772.81 550.085 774.441 550.085 Z" style="stroke:none;fill:#E0E2EA;stroke-linecap:square;stroke-miterlimit:2;"/><path d="M 774.441 571.166 L 858.045 571.166 C 859.676 571.166 861 572.49 861 574.121 L 861 575.234 C 861 576.865 859.676 578.189 858.045 578.189 L 774.441 578.189 C 772.81 578.189 771.486 576.865 771.486 575.234 L 771.486 574.121 C 771.486 572.49 772.81 571.166 774.441 571.166 Z" style="stroke:none;fill:#E0E2EA;stroke-linecap:square;stroke-miterlimit:2;"/><path d="M 774.441 592.247 L 858.045 592.247 C 859.676 592.247 861 593.571 861 595.201 L 861 596.315 C 861 597.946 859.676 599.27 858.045 599.27 L 774.441 599.27 C 772.81 599.27 771.486 597.946 771.486 596.315 L 771.486 595.201 C 771.486 593.571 772.81 592.247 774.441 592.247 Z" style="stroke:none;fill:#E0E2EA;stroke-linecap:square;stroke-miterlimit:2;"/><path d="M 774.441 613.327 L 858.045 613.327 C 859.676 613.327 861 614.652 861 616.282 L 861 617.396 C 861 619.026 859.676 620.351 858.045 620.351 L 774.441 620.351 C 772.81 620.351 771.486 619.026 771.486 617.396 L 771.486 616.282 C 771.486 614.652 772.81 613.327 774.441 613.327 Z" style="stroke:none;fill:#E0E2EA;stroke-linecap:square;stroke-miterlimit:2;"/><path d="M 794.594 634.408 L 858.406 634.408 C 859.838 634.408 861 635.571 861 637.003 L 861 638.837 C 861 640.269 859.838 641.431 858.406 641.431 L 794.594 641.431 C 793.162 641.431 792 640.269 792 638.837 L 792 637.003 C 792 635.571 793.162 634.408 794.594 634.408 Z" style="stroke:none;fill:#E0E2EA;stroke-linecap:square;stroke-miterlimit:2;"/><path d=" M 745.797 460.662 L 726.492 446.429 C 725.181 445.456 723.396 445.438 722.059 446.379 L 712.759 452.932 L 717.127 459.132 L 724.192 454.154 L 737.064 463.642 L 722.763 473.717 C 719.344 476.126 718.522 480.866 720.931 484.286 L 714.73 488.654 C 712.321 485.234 707.581 484.412 704.162 486.822 L 689.861 496.897 L 685.26 481.582 L 692.325 476.605 L 687.957 470.404 L 678.656 476.957 C 677.32 477.898 676.74 479.583 677.211 481.148 L 684.116 504.117 L 684.161 504.103 C 684.269 504.487 684.402 504.866 684.644 505.21 L 693.381 517.611 C 696.993 522.739 704.106 523.972 709.234 520.36 L 718.534 513.807 C 723.662 510.195 724.895 503.082 721.283 497.954 L 719.099 494.854 L 725.299 490.486 L 727.483 493.586 C 731.096 498.714 738.208 499.947 743.336 496.335 L 752.637 489.782 C 757.765 486.17 758.998 479.057 755.385 473.929 L 746.649 461.529 C 746.406 461.184 746.094 460.932 745.77 460.696 L 745.797 460.662 Z  M 715.082 502.323 C 716.286 504.031 715.878 506.401 714.166 507.607 L 704.866 514.159 C 703.154 515.365 700.785 514.951 699.581 513.243 L 693.029 503.942 L 708.53 493.022 L 715.082 502.323 Z  M 749.185 478.298 C 750.388 480.006 749.98 482.376 748.269 483.582 L 738.968 490.134 C 737.257 491.34 734.887 490.926 733.684 489.218 L 727.131 479.917 L 742.632 468.997 L 749.185 478.298 Z " fill="rgb(0,102,255)"/><g><path d=" M 904.519 545.814 L 896.754 538.048 L 852.214 582.588 L 849.624 592.939 L 859.975 590.354 L 904.519 545.814 Z " fill="none"/><path d=" M 919.205 531.125 L 911.439 538.891 L 903.674 531.125 L 911.439 523.36 L 919.205 531.125 Z " fill="none"/><path d=" M 842.897 604.567 C 843.294 604.567 843.69 604.518 844.082 604.42 L 863.666 599.524 C 864.528 599.309 865.316 598.863 865.943 598.236 L 926.131 538.048 C 927.982 536.198 929 533.74 929 531.125 C 929 528.511 927.982 526.053 926.131 524.202 L 918.366 516.437 C 914.664 512.735 908.221 512.735 904.519 516.437 L 844.331 576.625 C 843.705 577.252 843.259 578.04 843.044 578.897 L 838.148 598.481 C 837.727 600.151 838.221 601.913 839.435 603.132 C 840.361 604.063 841.614 604.567 842.897 604.567 Z  M 911.443 523.36 L 919.208 531.125 L 911.443 538.891 L 903.677 531.125 L 911.443 523.36 Z  M 852.214 582.588 L 896.754 538.048 L 904.519 545.814 L 859.975 590.354 L 849.624 592.939 L 852.214 582.588 Z " fill="rgb(0,102,255)"/></g></g></svg>