<?xml version="1.0" encoding="UTF-8" standalone="no"?><!-- Generator: Gravit.io --><svg xmlns="http://www.w3.org/2000/svg" xmlns:xlink="http://www.w3.org/1999/xlink" style="isolation:isolate" viewBox="367 527 117.826 117.485" width="117.826pt" height="117.485pt"><g><g><path d=" M 452.07 567.366 L 421.247 581.246 L 413.071 550.733 L 444.122 544.131 L 452.07 567.366 L 452.07 567.366 Z " fill="rgb(60,154,223)"/><g opacity="0.05"><path d=" M 452.07 567.366 L 421.247 581.246 L 413.071 550.733 L 444.122 544.131 L 452.07 567.366 L 452.07 567.366 Z " fill="rgb(0,0,0)"/></g><path d=" M 421.247 581.246 L 381.822 588.71 L 376.846 561.583 L 413.071 550.733 L 421.247 581.246 L 421.247 581.246 Z " fill="rgb(60,154,223)"/><g opacity="0.1"><path d=" M 421.247 581.246 L 381.822 588.71 L 376.846 561.583 L 413.071 550.733 L 421.247 581.246 L 421.247 581.246 Z " fill="rgb(0,0,0)"/></g><path d=" M 411.859 593.743 L 421.247 581.246 L 381.822 588.71 L 378.06 599.933 L 411.859 593.743 L 411.859 593.743 Z " fill="rgb(60,154,223)"/><path d=" M 466.465 574.41 L 438.397 585.717 L 421.247 581.246 L 452.07 567.366 L 466.465 574.41 L 466.465 574.41 Z " fill="rgb(60,154,223)"/><path d=" M 412.058 575.216 L 400.88 533.498 L 416.392 531.001 L 423.139 529.911 L 425.196 529.585 L 431.939 528.5 L 441.254 527 L 452.07 567.366 L 419.258 573.807 L 412.058 575.216 L 412.058 575.216 Z " fill="rgb(60,154,223)"/><path d=" M 381.822 588.71 L 370.921 548.026 L 382.399 542.461 L 387.981 539.754 L 400.88 533.498 L 412.058 575.216 L 381.822 588.71 L 381.822 588.71 Z " fill="rgb(60,154,223)"/><g opacity="0.05"><path d=" M 381.822 588.71 L 370.921 548.026 L 382.399 542.461 L 387.981 539.754 L 400.88 533.498 L 412.058 575.216 L 381.822 588.71 L 381.822 588.71 Z " fill="rgb(0,0,0)"/></g><path d=" M 461.387 555.458 L 452.07 567.366 L 412.058 575.216 L 415.232 563.922 L 461.387 555.458 L 461.387 555.458 Z " fill="rgb(60,154,223)"/><g opacity="0.1"><path d=" M 461.387 555.458 L 452.07 567.366 L 412.058 575.216 L 415.232 563.922 L 461.387 555.458 L 461.387 555.458 Z " fill="rgb(255,255,255)"/></g><path d=" M 381.822 588.71 L 412.058 575.216 L 399.311 568.762 L 367 583.503 L 381.822 588.71 L 381.822 588.71 Z " fill="rgb(60,154,223)"/><g opacity="0.1"><path d=" M 381.822 588.71 L 412.058 575.216 L 399.311 568.762 L 367 583.503 L 381.822 588.71 L 381.822 588.71 Z " fill="rgb(255,255,255)"/></g><g opacity="0.1"><path d=" M 439.28 552.328 C 439.42 550.406 440.275 547.387 441.274 545.105 L 443.191 546.265 L 441.719 552.491 C 441.719 552.491 440.803 552.44 439.28 552.328 Z " fill="rgb(0,0,0)"/></g><g><path d=" M 437.282 555.037 C 432.606 552.363 433.541 546.496 433.541 546.496 C 433.424 542.685 430.275 543.225 430.275 543.225 L 429.129 543.486 C 428.596 543.239 428.01 543.131 427.425 543.171 L 425.681 543.464 C 429.651 544.397 429.325 547.718 429.325 547.718 L 429.881 551.601 L 419.479 547.404 L 420.674 544.589 C 420.839 544.329 420.98 544.054 421.094 543.768 C 421.939 541.636 420.344 539.515 418.836 538.917 C 417.328 538.32 415.421 539.565 414.576 541.697 C 413.743 543.8 414.558 546.473 416.027 547.118 L 416.026 547.121 L 419.155 548.424 L 419.178 548.35 L 437.282 555.037 Z  M 432 548.214 L 432.334 551.944 C 430.37 549.337 430.772 546.239 430.772 546.239 C 430.744 545.52 430.501 544.826 430.075 544.245 C 432.331 545.596 432 548.214 432 548.214 L 432 548.214 Z " fill="rgb(184,225,255)"/><path d=" M 402.359 552.694 C 399.194 554.539 396.057 551.993 396.057 551.993 C 393.773 550.767 393.02 552.805 393.02 552.805 L 392.784 553.568 C 392.458 553.798 392.195 554.106 392.019 554.465 L 391.599 555.591 C 393.498 553.571 395.343 554.892 395.343 554.892 L 397.819 555.884 L 391.811 560.583 L 390.559 558.923 C 390.462 558.737 390.348 558.561 390.219 558.396 C 389.25 557.173 387.459 557.392 386.594 558.077 C 385.73 558.762 385.814 560.308 386.783 561.53 C 387.738 562.736 389.589 563.165 390.469 562.519 L 390.47 562.521 L 392.301 561.121 L 392.265 561.082 L 402.359 552.694 Z  M 396.545 553.485 L 398.855 554.556 C 396.652 554.827 394.964 553.537 394.964 553.537 C 394.531 553.309 394.04 553.215 393.553 553.269 C 395.115 552.4 396.545 553.485 396.545 553.485 L 396.545 553.485 Z " fill="rgb(184,225,255)"/></g></g><g><path d=" M 437.598 601.553 C 437.598 601.553 432.162 601.225 432.797 605.039 C 432.797 605.039 432.67 605.713 433.28 606.019 C 433.28 606.019 433.29 605.733 433.838 605.832 C 434.034 605.864 434.232 605.874 434.429 605.86 C 434.697 605.842 434.951 605.737 435.153 605.561 L 435.153 605.561 C 435.153 605.561 436.682 604.93 437.278 602.43 C 437.278 602.43 437.718 601.883 437.707 601.743 L 436.788 602.136 C 436.788 602.136 437.102 602.799 436.854 603.35 C 436.854 603.35 436.825 602.161 436.648 602.188 C 436.612 602.188 436.172 602.418 436.172 602.418 C 436.172 602.418 436.711 603.571 436.303 604.411 C 436.303 604.411 436.458 602.989 436.003 602.501 L 435.356 602.879 C 435.356 602.879 435.987 604.071 435.559 605.043 C 435.559 605.043 435.67 603.551 435.22 602.97 L 434.634 603.427 C 434.634 603.427 435.227 604.603 434.866 605.41 C 434.866 605.41 434.818 603.673 434.506 603.541 C 434.506 603.541 433.994 603.993 433.917 604.179 C 433.917 604.179 434.322 605.038 434.07 605.483 C 434.07 605.483 433.916 604.325 433.784 604.319 C 433.784 604.319 433.273 605.086 433.22 605.607 C 433.245 605.122 433.397 604.651 433.66 604.242 C 433.365 604.298 433.094 604.439 432.878 604.647 C 432.878 604.647 432.957 604.105 433.785 604.058 C 433.785 604.058 434.215 603.475 434.32 603.44 C 434.32 603.44 433.496 603.371 432.997 603.593 C 432.997 603.593 433.436 603.082 434.472 603.307 L 435.044 602.835 C 435.044 602.835 433.96 602.691 433.499 602.85 C 433.499 602.85 434.029 602.398 435.2 602.727 L 435.83 602.351 C 435.83 602.351 434.906 602.151 434.355 602.224 C 434.355 602.224 434.936 601.91 436.014 602.249 L 436.465 602.048 C 436.465 602.048 435.787 601.915 435.589 601.893 C 435.589 601.893 435.381 601.817 435.381 601.817 C 435.81 601.746 436.25 601.796 436.652 601.96 C 436.652 601.96 437.618 601.613 437.598 601.553 Z " fill="rgb(60,154,223)"/><g opacity="0.1"><path d=" M 454.116 620.628 C 454.116 620.628 448.679 620.301 449.315 624.115 C 449.315 624.115 449.187 624.788 449.798 625.095 C 449.798 625.095 449.808 624.808 450.357 624.907 C 450.553 624.94 450.751 624.95 450.948 624.936 C 451.213 624.917 451.464 624.812 451.664 624.638 L 451.664 624.638 C 451.664 624.638 453.194 624.006 453.789 621.505 C 453.789 621.505 454.229 620.96 454.211 620.82 L 453.293 621.212 C 453.293 621.212 453.606 621.874 453.36 622.425 C 453.36 622.425 453.33 621.236 453.154 621.263 C 453.119 621.263 452.676 621.494 452.676 621.494 C 452.676 621.494 453.217 622.648 452.809 623.487 C 452.809 623.487 452.964 622.065 452.508 621.577 L 451.868 621.95 C 451.868 621.95 452.499 623.142 452.071 624.115 C 452.071 624.115 452.181 622.623 451.732 622.042 L 451.147 622.499 C 451.147 622.499 451.739 623.674 451.379 624.481 C 451.379 624.481 451.332 622.744 451.02 622.612 C 451.02 622.612 450.508 623.065 450.429 623.251 C 450.429 623.251 450.835 624.109 450.583 624.554 C 450.583 624.554 450.429 623.396 450.297 623.391 C 450.297 623.391 449.787 624.158 449.734 624.678 C 449.759 624.193 449.911 623.722 450.174 623.313 C 449.88 623.369 449.608 623.51 449.392 623.718 C 449.392 623.718 449.472 623.176 450.3 623.129 C 450.3 623.129 450.722 622.547 450.835 622.511 C 450.835 622.511 450.011 622.442 449.512 622.664 C 449.512 622.664 449.951 622.153 450.985 622.385 L 451.558 621.913 C 451.558 621.913 450.472 621.77 450.013 621.929 C 450.013 621.929 450.542 621.477 451.714 621.806 L 452.343 621.429 C 452.343 621.429 451.418 621.231 450.867 621.302 C 450.867 621.302 451.449 620.989 452.528 621.328 L 452.978 621.126 C 452.978 621.126 452.3 620.993 452.101 620.972 C 452.101 620.972 451.892 620.896 451.892 620.896 C 452.322 620.824 452.763 620.874 453.166 621.039 C 453.166 621.039 454.133 620.688 454.116 620.628 Z " fill="rgb(60,154,223)"/></g><g opacity="0.1"><path d=" M 421.09 617.242 C 421.09 617.242 422.342 611.936 418.474 611.917 C 418.474 611.917 417.831 611.677 417.427 612.226 C 417.427 612.226 417.703 612.285 417.515 612.809 C 417.45 612.994 417.407 613.186 417.387 613.381 C 417.359 613.647 417.419 613.914 417.557 614.143 L 417.557 614.143 C 417.557 614.143 417.919 615.76 420.275 616.773 C 420.275 616.773 420.738 617.299 420.879 617.305 L 420.65 616.334 C 420.65 616.334 419.943 616.53 419.442 616.191 C 419.442 616.191 420.62 616.364 420.621 616.191 C 420.621 616.155 420.478 615.681 420.478 615.681 C 420.478 615.681 419.249 616.016 418.491 615.471 C 418.491 615.471 419.866 615.866 420.425 615.501 L 420.168 614.797 C 420.168 614.797 418.88 615.216 417.999 614.628 C 417.999 614.628 419.451 614.992 420.1 614.648 L 419.75 613.993 C 419.75 613.993 418.491 614.377 417.757 613.883 C 417.757 613.883 419.474 614.132 419.66 613.849 C 419.66 613.849 419.302 613.266 419.132 613.158 C 419.132 613.158 418.222 613.412 417.821 613.088 C 417.821 613.088 418.987 613.132 419.015 613.009 C 419.015 613.009 418.346 612.375 417.837 612.232 C 418.312 612.34 418.75 612.57 419.109 612.899 C 419.104 612.599 419.011 612.307 418.843 612.059 C 418.843 612.059 419.364 612.231 419.272 613.06 C 419.272 613.06 419.773 613.575 419.789 613.693 C 419.789 613.693 419.996 612.893 419.863 612.362 C 419.863 612.362 420.292 612.883 419.887 613.863 L 420.253 614.514 C 420.253 614.514 420.585 613.47 420.501 612.989 C 420.501 612.989 420.857 613.587 420.332 614.686 L 420.597 615.371 C 420.597 615.371 420.95 614.492 420.973 613.94 C 420.973 613.94 421.183 614.567 420.664 615.573 L 420.787 616.05 C 420.787 616.05 421.033 615.405 421.087 615.213 C 421.087 615.213 421.198 615.02 421.198 615.02 C 421.195 615.456 421.072 615.882 420.841 616.251 C 420.841 616.251 421.029 617.249 421.09 617.242 Z " fill="rgb(60,154,223)"/></g><g opacity="0.1"><path d=" M 409.185 619.05 C 409.185 619.05 404.819 615.784 403.258 619.322 C 403.258 619.322 402.782 619.816 403.124 620.407 C 403.124 620.407 403.287 620.176 403.696 620.558 C 403.841 620.693 404.001 620.81 404.174 620.907 C 404.407 621.037 404.677 621.088 404.942 621.05 L 404.942 621.05 C 404.942 621.05 406.567 621.364 408.438 619.603 C 408.438 619.603 409.106 619.388 409.169 619.262 L 408.184 619.089 C 408.184 619.089 408.081 619.814 407.573 620.139 C 407.573 620.139 408.201 619.129 408.038 619.056 C 408.005 619.04 407.513 618.985 407.513 618.985 C 407.513 618.985 407.329 620.246 406.528 620.723 C 406.528 620.723 407.44 619.62 407.327 618.962 L 406.578 618.922 C 406.578 618.922 406.451 620.265 405.558 620.843 C 405.558 620.843 406.47 619.657 406.417 618.924 L 405.676 618.985 C 405.676 618.985 405.525 620.291 404.78 620.766 C 404.78 620.766 405.694 619.289 405.507 619.009 C 405.507 619.009 404.83 619.105 404.663 619.216 C 404.663 619.216 404.533 620.152 404.075 620.389 C 404.075 620.389 404.583 619.338 404.48 619.265 C 404.48 619.265 403.631 619.624 403.298 620.033 C 403.586 619.641 403.972 619.332 404.417 619.135 C 404.14 619.02 403.836 618.988 403.541 619.043 C 403.541 619.043 403.905 618.634 404.623 619.05 C 404.623 619.05 405.295 618.797 405.41 618.829 C 405.41 618.829 404.759 618.318 404.219 618.229 C 404.219 618.229 404.869 618.043 405.606 618.801 L 406.348 618.726 C 406.348 618.726 405.523 618.01 405.049 617.89 C 405.049 617.89 405.74 617.803 406.537 618.721 L 407.269 618.754 C 407.269 618.754 406.607 618.079 406.108 617.836 C 406.108 617.836 406.764 617.893 407.48 618.77 L 407.968 618.849 C 407.968 618.849 407.474 618.365 407.319 618.239 C 407.319 618.239 407.186 618.06 407.186 618.06 C 407.584 618.237 407.926 618.52 408.172 618.879 C 408.172 618.879 409.166 619.109 409.185 619.05 Z " fill="rgb(60,154,223)"/></g><g opacity="0.1"><path d=" M 423.721 588.706 C 423.721 588.706 419.355 585.438 417.794 588.978 C 417.794 588.978 417.318 589.471 417.66 590.062 C 417.66 590.062 417.823 589.832 418.232 590.214 C 418.378 590.348 418.539 590.465 418.711 590.561 C 418.945 590.692 419.215 590.742 419.48 590.705 L 419.48 590.705 C 419.48 590.705 421.105 591.018 422.976 589.255 C 422.976 589.255 423.644 589.042 423.705 588.915 L 422.72 588.745 C 422.72 588.745 422.618 589.47 422.109 589.795 C 422.109 589.795 422.738 588.785 422.575 588.712 C 422.542 588.696 422.05 588.64 422.05 588.64 C 422.05 588.64 421.861 589.905 421.06 590.378 C 421.06 590.378 421.97 589.275 421.859 588.617 L 421.11 588.577 C 421.11 588.577 420.982 589.921 420.09 590.497 C 420.09 590.497 421.002 589.311 420.949 588.579 L 420.209 588.639 C 420.209 588.639 420.057 589.946 419.312 590.421 C 419.312 590.421 420.228 588.945 420.04 588.664 C 420.04 588.664 419.364 588.76 419.196 588.872 C 419.196 588.872 419.066 589.808 418.608 590.045 C 418.608 590.045 419.116 588.994 419.013 588.919 C 419.013 588.919 418.165 589.28 417.831 589.689 C 418.119 589.297 418.505 588.987 418.95 588.79 C 418.673 588.675 418.368 588.643 418.073 588.699 C 418.073 588.699 418.438 588.29 419.156 588.706 C 419.156 588.706 419.829 588.451 419.943 588.484 C 419.943 588.484 419.292 587.974 418.753 587.883 C 418.753 587.883 419.401 587.699 420.138 588.456 L 420.88 588.38 C 420.88 588.38 420.056 587.665 419.581 587.543 C 419.581 587.543 420.272 587.457 421.07 588.376 L 421.803 588.407 C 421.803 588.407 421.14 587.732 420.64 587.49 C 420.64 587.49 421.298 587.547 422.013 588.424 L 422.499 588.503 C 422.499 588.503 422.005 588.025 421.85 587.902 C 421.695 587.779 421.717 587.725 421.717 587.725 C 422.115 587.901 422.456 588.184 422.703 588.543 C 422.703 588.543 423.697 588.76 423.721 588.706 Z " fill="rgb(60,154,223)"/></g><g opacity="0.1"><path d=" M 440.405 592.845 C 440.405 592.845 438.659 587.679 435.368 589.709 C 435.368 589.709 434.695 589.852 434.642 590.526 C 434.642 590.526 434.907 590.428 435.024 590.972 C 435.068 591.165 435.134 591.353 435.22 591.531 C 435.339 591.771 435.531 591.967 435.77 592.088 L 435.77 592.088 C 435.77 592.088 436.931 593.268 439.472 592.878 C 439.472 592.878 440.143 593.081 440.266 593.011 L 439.551 592.308 C 439.551 592.308 439.056 592.848 438.452 592.826 C 438.452 592.826 439.544 592.351 439.453 592.198 C 439.435 592.168 439.061 591.843 439.061 591.843 C 439.061 591.843 438.195 592.777 437.265 592.716 C 437.265 592.716 438.639 592.324 438.92 591.715 L 438.328 591.258 C 438.328 591.258 437.461 592.291 436.398 592.26 C 436.398 592.26 437.828 591.8 438.19 591.165 L 437.546 590.795 C 437.546 590.795 436.688 591.786 435.798 591.755 C 435.798 591.755 437.389 591.058 437.393 590.72 C 437.393 590.72 436.783 590.416 436.581 590.413 C 436.581 590.413 435.943 591.109 435.436 591.046 C 435.436 591.046 436.449 590.467 436.406 590.348 C 436.406 590.348 435.505 590.164 434.997 590.313 C 435.457 590.153 435.95 590.116 436.428 590.205 C 436.265 589.953 436.031 589.754 435.757 589.633 C 435.757 589.633 436.289 589.503 436.645 590.252 C 436.645 590.252 437.343 590.426 437.418 590.516 C 437.418 590.516 437.172 589.727 436.778 589.347 C 436.778 589.347 437.418 589.563 437.592 590.609 L 438.247 590.966 C 438.247 590.966 437.977 589.906 437.651 589.536 C 437.651 589.536 438.27 589.856 438.405 591.065 L 438.991 591.507 C 438.991 591.507 438.828 590.574 438.554 590.091 C 438.554 590.091 439.063 590.511 439.154 591.64 L 439.511 591.981 C 439.511 591.981 439.379 591.303 439.325 591.111 C 439.27 590.919 439.315 590.906 439.315 590.906 C 439.542 591.277 439.662 591.704 439.662 592.139 C 439.662 592.139 440.355 592.882 440.405 592.845 Z " fill="rgb(60,154,223)"/></g><g opacity="0.1"><path d=" M 429.014 593.099 C 429.014 593.099 423.592 592.496 424.04 596.342 C 424.04 596.342 423.879 597.009 424.469 597.344 C 424.469 597.344 424.494 597.058 425.042 597.187 C 425.235 597.228 425.433 597.248 425.631 597.245 C 425.899 597.24 426.157 597.148 426.368 596.983 L 426.368 596.983 C 426.368 596.983 427.929 596.43 428.657 593.962 C 428.657 593.962 429.123 593.44 429.113 593.298 L 428.176 593.644 C 428.176 593.644 428.462 594.321 428.176 594.859 C 428.176 594.859 428.206 593.67 428.033 593.689 C 427.997 593.689 427.545 593.895 427.545 593.895 C 427.545 593.895 428.026 595.075 427.577 595.898 C 427.577 595.898 427.803 594.484 427.372 593.975 L 426.707 594.318 C 426.707 594.318 427.279 595.541 426.8 596.491 C 426.8 596.491 426.986 595.006 426.567 594.404 L 425.959 594.833 C 425.959 594.833 426.491 596.036 426.089 596.825 C 426.089 596.825 426.13 595.088 425.826 594.941 C 425.826 594.941 425.291 595.37 425.203 595.547 C 425.203 595.547 425.565 596.42 425.292 596.856 C 425.292 596.856 425.196 595.693 425.07 595.682 C 425.07 595.682 424.521 596.421 424.441 596.943 C 424.49 596.459 424.666 595.997 424.95 595.601 C 424.653 595.642 424.375 595.769 424.149 595.966 C 424.149 595.966 424.255 595.43 425.085 595.424 C 425.085 595.424 425.535 594.865 425.657 594.835 C 425.657 594.835 424.837 594.724 424.326 594.92 C 424.326 594.92 424.791 594.431 425.813 594.716 L 426.415 594.274 C 426.415 594.274 425.326 594.054 424.866 594.197 C 424.866 594.197 425.418 593.767 426.571 594.161 L 427.219 593.816 C 427.219 593.816 426.305 593.57 425.751 593.614 C 425.751 593.614 426.348 593.328 427.408 593.724 L 427.869 593.546 C 427.869 593.546 427.198 593.378 427 593.347 C 427 593.347 426.796 593.261 426.796 593.261 C 427.228 593.211 427.666 593.283 428.06 593.467 C 428.06 593.467 429.024 593.159 429.014 593.099 Z " fill="rgb(60,154,223)"/></g><g opacity="0.1"><path d=" M 476.453 635.183 C 476.453 635.183 471.034 634.579 471.482 638.422 C 471.482 638.422 471.32 639.089 471.911 639.423 C 471.911 639.423 471.935 639.137 472.483 639.265 C 472.676 639.308 472.874 639.327 473.072 639.323 C 473.34 639.319 473.599 639.227 473.809 639.061 L 473.809 639.061 C 473.809 639.061 475.37 638.508 476.091 636.041 C 476.091 636.041 476.557 635.518 476.547 635.378 L 475.61 635.722 C 475.61 635.722 475.896 636.401 475.61 636.938 C 475.61 636.938 475.64 635.748 475.467 635.768 C 475.431 635.768 474.979 635.973 474.979 635.973 C 474.979 635.973 475.46 637.153 475.011 637.976 C 475.011 637.976 475.237 636.564 474.806 636.053 L 474.141 636.398 C 474.141 636.398 474.713 637.621 474.236 638.571 C 474.236 638.571 474.42 637.086 474.001 636.482 L 473.393 636.911 C 473.393 636.911 473.925 638.114 473.523 638.901 C 473.523 638.901 473.565 637.164 473.26 637.019 C 473.26 637.019 472.726 637.448 472.638 637.625 C 472.638 637.625 473.001 638.498 472.726 638.934 C 472.726 638.934 472.63 637.771 472.504 637.76 C 472.504 637.76 471.955 638.499 471.875 639.021 C 471.925 638.537 472.1 638.075 472.384 637.68 C 472.087 637.72 471.809 637.847 471.583 638.044 C 471.583 638.044 471.689 637.506 472.519 637.501 C 472.519 637.501 472.971 636.941 473.091 636.913 C 473.091 636.913 472.271 636.801 471.761 636.997 C 471.761 636.997 472.226 636.509 473.248 636.794 L 473.849 636.352 C 473.849 636.352 472.773 636.149 472.306 636.289 C 472.306 636.289 472.858 635.86 474.011 636.252 L 474.659 635.908 C 474.659 635.908 473.745 635.662 473.191 635.707 C 473.191 635.707 473.788 635.421 474.848 635.817 L 475.308 635.637 C 475.308 635.637 474.638 635.469 474.44 635.439 C 474.44 635.439 474.236 635.353 474.236 635.353 C 474.668 635.303 475.106 635.374 475.5 635.558 C 475.5 635.558 476.467 635.245 476.453 635.183 Z " fill="rgb(60,154,223)"/></g><g opacity="0.1"><path d=" M 484.737 640.245 C 484.737 640.245 479.318 639.642 479.766 643.483 C 479.766 643.483 479.606 644.15 480.195 644.485 C 480.195 644.485 480.22 644.199 480.768 644.327 C 480.961 644.369 481.158 644.389 481.356 644.385 C 481.622 644.379 481.879 644.288 482.089 644.124 L 482.089 644.124 C 482.089 644.124 483.649 643.571 484.37 641.103 C 484.37 641.103 484.838 640.581 484.826 640.439 L 483.889 640.784 C 483.889 640.784 484.175 641.462 483.889 642 C 483.889 642 483.919 640.811 483.746 640.83 C 483.71 640.83 483.258 641.034 483.258 641.034 C 483.258 641.034 483.739 642.214 483.29 643.037 C 483.29 643.037 483.516 641.625 483.085 641.116 L 482.42 641.459 C 482.42 641.459 482.992 642.682 482.514 643.632 C 482.514 643.632 482.699 642.147 482.28 641.545 L 481.672 641.974 C 481.672 641.974 482.204 643.177 481.803 643.966 C 481.803 643.966 481.843 642.227 481.539 642.081 C 481.539 642.081 481.005 642.511 480.916 642.688 C 480.916 642.688 481.28 643.561 481.005 643.997 C 481.005 643.997 480.909 642.834 480.783 642.822 C 480.783 642.822 480.234 643.562 480.155 644.084 C 480.205 643.6 480.38 643.138 480.663 642.742 C 480.366 642.783 480.088 642.91 479.862 643.107 C 479.862 643.107 479.969 642.569 480.799 642.565 C 480.799 642.565 481.25 642.006 481.371 641.976 C 481.371 641.976 480.552 641.865 480.041 642.061 C 480.041 642.061 480.506 641.572 481.529 641.857 L 482.13 641.415 C 482.13 641.415 481.054 641.212 480.586 641.352 C 480.586 641.352 481.138 640.923 482.291 641.316 L 482.939 640.971 C 482.939 640.971 482.025 640.725 481.471 640.77 C 481.471 640.77 482.068 640.483 483.128 640.88 L 483.589 640.701 C 483.589 640.701 482.918 640.534 482.722 640.502 C 482.722 640.502 482.516 640.416 482.516 640.416 C 482.948 640.367 483.386 640.438 483.78 640.622 C 483.78 640.622 484.752 640.306 484.737 640.245 Z " fill="rgb(60,154,223)"/></g><g opacity="0.1"><path d=" M 466.344 597.611 C 466.344 597.611 461.978 594.345 460.417 597.883 C 460.417 597.883 459.941 598.377 460.283 598.968 C 460.283 598.968 460.446 598.737 460.855 599.119 C 461 599.254 461.16 599.371 461.333 599.468 C 461.567 599.598 461.836 599.649 462.101 599.611 L 462.101 599.611 C 462.101 599.611 463.726 599.925 465.599 598.164 C 465.599 598.164 466.266 597.949 466.329 597.823 L 465.346 597.646 C 465.346 597.646 465.243 598.371 464.735 598.696 C 464.735 598.696 465.363 597.686 465.2 597.613 C 465.167 597.597 464.676 597.541 464.676 597.541 C 464.676 597.541 464.492 598.803 463.691 599.279 C 463.691 599.279 464.602 598.177 464.489 597.518 L 463.741 597.478 C 463.741 597.478 463.613 598.822 462.721 599.4 C 462.721 599.4 463.633 598.214 463.579 597.481 L 462.838 597.541 C 462.838 597.541 462.695 598.847 461.942 599.322 C 461.942 599.322 462.858 597.846 462.669 597.566 C 462.669 597.566 461.992 597.661 461.825 597.773 C 461.825 597.773 461.696 598.709 461.239 598.946 C 461.239 598.946 461.745 597.895 461.642 597.822 C 461.642 597.822 460.794 598.181 460.46 598.59 C 460.749 598.198 461.134 597.889 461.579 597.692 C 461.302 597.577 460.998 597.545 460.704 597.6 C 460.704 597.6 461.068 597.191 461.786 597.607 C 461.786 597.607 462.457 597.354 462.572 597.385 C 462.572 597.385 461.921 596.875 461.382 596.786 C 461.382 596.786 462.031 596.6 462.768 597.358 L 463.51 597.282 C 463.51 597.282 462.686 596.567 462.211 596.447 C 462.211 596.447 462.902 596.36 463.699 597.278 L 464.433 597.311 C 464.433 597.311 463.769 596.636 463.27 596.393 C 463.27 596.393 463.928 596.45 464.642 597.327 L 465.13 597.405 C 465.13 597.405 464.636 596.922 464.482 596.796 C 464.327 596.67 464.35 596.629 464.35 596.629 C 464.748 596.805 465.088 597.088 465.334 597.447 C 465.334 597.447 466.326 597.67 466.344 597.611 Z " fill="rgb(60,154,223)"/></g><g opacity="0.1"><path d=" M 469.718 621.19 C 469.718 621.19 468.213 615.95 464.828 617.831 C 464.828 617.831 464.15 617.936 464.065 618.614 C 464.065 618.614 464.334 618.53 464.427 619.077 C 464.462 619.274 464.519 619.466 464.599 619.65 C 464.705 619.896 464.889 620.101 465.123 620.233 L 465.123 620.233 C 465.123 620.233 466.23 621.464 468.785 621.189 C 468.785 621.189 469.446 621.421 469.572 621.358 L 468.895 620.623 C 468.895 620.623 468.376 621.14 467.775 621.092 C 467.775 621.092 468.885 620.663 468.799 620.51 C 468.782 620.478 468.424 620.136 468.424 620.136 C 468.424 620.136 467.517 621.032 466.59 620.927 C 466.59 620.927 467.982 620.598 468.289 620.006 L 467.716 619.522 C 467.716 619.522 466.804 620.515 465.743 620.438 C 465.743 620.438 467.186 620.042 467.583 619.425 L 466.957 619.026 C 466.957 619.026 466.048 619.977 465.167 619.906 C 465.167 619.906 466.788 619.281 466.808 618.944 C 466.808 618.944 466.21 618.613 466.008 618.601 C 466.008 618.601 465.34 619.268 464.832 619.182 C 464.832 619.182 465.871 618.648 465.834 618.528 C 465.834 618.528 464.941 618.304 464.427 618.428 C 464.893 618.29 465.386 618.276 465.858 618.387 C 465.707 618.128 465.483 617.919 465.214 617.786 C 465.214 617.786 465.752 617.678 466.073 618.444 C 466.073 618.444 466.761 618.647 466.832 618.741 C 466.832 618.741 466.622 617.942 466.246 617.545 C 466.246 617.545 466.875 617.789 467.002 618.841 L 467.64 619.229 C 467.64 619.229 467.417 618.156 467.108 617.779 C 467.108 617.779 467.712 618.126 467.794 619.339 L 468.366 619.807 C 468.366 619.807 468.244 618.869 467.992 618.377 C 467.992 618.377 468.483 618.82 468.523 619.95 L 468.864 620.308 C 468.864 620.308 468.763 619.624 468.721 619.429 C 468.721 619.429 468.721 619.208 468.721 619.208 C 468.932 619.588 469.034 620.02 469.014 620.455 C 469.014 620.455 469.666 621.225 469.718 621.19 Z " fill="rgb(60,154,223)"/></g><g opacity="0.1"><path d=" M 436.182 632.999 C 436.182 632.999 433.259 628.395 430.545 631.15 C 430.545 631.15 429.924 631.436 430.033 632.116 C 430.033 632.116 430.269 631.959 430.512 632.459 C 430.6 632.637 430.708 632.803 430.836 632.954 C 431.006 633.161 431.24 633.306 431.501 633.366 L 431.501 633.366 C 431.501 633.366 432.91 634.236 435.285 633.252 C 435.285 633.252 435.984 633.289 436.087 633.193 L 435.229 632.678 C 435.229 632.678 434.876 633.322 434.285 633.444 C 434.285 633.444 435.232 632.728 435.104 632.597 C 435.08 632.571 434.64 632.345 434.64 632.345 C 434.64 632.345 434.02 633.458 433.102 633.619 C 433.102 633.619 434.345 632.911 434.474 632.256 L 433.788 631.954 C 433.788 631.954 433.192 633.163 432.153 633.385 C 432.153 633.385 433.426 632.599 433.634 631.896 L 432.919 631.69 C 432.919 631.69 432.315 632.858 431.449 633.037 C 431.449 633.037 432.828 631.981 432.753 631.652 C 432.753 631.652 432.086 631.502 431.894 631.548 C 431.894 631.548 431.441 632.376 430.929 632.436 C 430.929 632.436 431.775 631.632 431.705 631.527 C 431.705 631.527 430.785 631.562 430.328 631.827 C 430.736 631.562 431.207 631.409 431.692 631.383 C 431.475 631.178 431.202 631.04 430.907 630.987 C 430.907 630.987 431.392 630.734 431.909 631.378 C 431.909 631.378 432.624 631.378 432.723 631.449 C 432.723 631.449 432.293 630.734 431.823 630.466 C 431.823 630.466 432.495 630.524 432.913 631.498 L 433.635 631.69 C 433.635 631.69 433.119 630.724 432.717 630.448 C 432.717 630.448 433.393 630.611 433.813 631.754 L 434.488 632.04 C 434.488 632.04 434.107 631.175 433.725 630.77 C 433.725 630.77 434.32 631.056 434.677 632.13 L 435.106 632.378 C 435.106 632.378 434.82 631.75 434.718 631.577 C 434.718 631.577 434.657 631.363 434.657 631.363 C 434.966 631.669 435.185 632.055 435.288 632.478 C 435.288 632.478 436.143 633.047 436.182 632.999 Z " fill="rgb(60,154,223)"/></g><path d=" M 455.39 609.477 C 455.39 609.477 452.611 604.786 449.811 607.455 C 449.811 607.455 449.182 607.727 449.27 608.405 C 449.27 608.405 449.509 608.254 449.738 608.761 C 449.82 608.942 449.923 609.112 450.046 609.268 C 450.21 609.479 450.439 609.63 450.698 609.697 L 450.698 609.697 C 450.698 609.697 452.078 610.61 454.483 609.697 C 454.483 609.697 455.181 609.756 455.287 609.663 L 454.448 609.122 C 454.448 609.122 454.076 609.753 453.48 609.857 C 453.48 609.857 454.449 609.166 454.327 609.036 C 454.302 609.009 453.87 608.769 453.87 608.769 C 453.87 608.769 453.216 609.863 452.296 609.996 C 452.296 609.996 453.561 609.327 453.708 608.677 L 453.033 608.359 C 453.033 608.359 452.399 609.551 451.353 609.741 C 451.353 609.741 452.651 608.996 452.88 608.299 L 452.173 608.07 C 452.173 608.07 451.532 609.215 450.662 609.372 C 450.662 609.372 452.073 608.359 452.007 608.029 C 452.007 608.029 451.346 607.857 451.149 607.897 C 451.149 607.897 450.669 608.711 450.156 608.756 C 450.156 608.756 451.027 607.98 450.961 607.872 C 450.961 607.872 450.04 607.879 449.575 608.129 C 449.991 607.878 450.466 607.74 450.953 607.729 C 450.741 607.516 450.472 607.37 450.179 607.308 C 450.179 607.308 450.672 607.069 451.18 607.729 C 451.18 607.729 451.895 607.753 451.991 607.826 C 451.991 607.826 451.586 607.111 451.123 606.816 C 451.123 606.816 451.792 606.893 452.18 607.88 L 452.895 608.095 C 452.895 608.095 452.41 607.113 452.016 606.824 C 452.016 606.824 452.688 607.009 453.071 608.163 L 453.737 608.474 C 453.737 608.474 453.383 607.597 453.021 607.186 C 453.021 607.186 453.606 607.491 453.931 608.575 L 454.35 608.836 C 454.35 608.836 454.081 608.199 453.987 608.023 C 453.987 608.023 453.933 607.809 453.933 607.809 C 454.232 608.124 454.439 608.516 454.529 608.942 C 454.529 608.942 455.349 609.524 455.39 609.477 Z " fill="rgb(60,154,223)"/><path d=" M 437.804 619.341 C 437.804 619.341 437.947 613.89 434.16 614.658 C 434.16 614.658 433.482 614.554 433.196 615.175 C 433.196 615.175 433.482 615.175 433.402 615.726 C 433.376 615.922 433.373 616.121 433.393 616.318 C 433.419 616.585 433.532 616.837 433.715 617.033 L 433.715 617.033 C 433.715 617.033 434.398 618.541 436.917 619.053 C 436.917 619.053 437.476 619.475 437.617 619.452 L 437.187 618.548 C 437.187 618.548 436.536 618.883 435.977 618.655 C 435.977 618.655 437.165 618.585 437.132 618.411 C 437.132 618.375 436.886 617.94 436.886 617.94 C 436.886 617.94 435.75 618.52 434.898 618.139 C 434.898 618.139 436.329 618.246 436.797 617.776 L 436.398 617.142 C 436.398 617.142 435.227 617.811 434.24 617.417 C 434.24 617.417 435.735 617.477 436.302 617.009 L 435.825 616.437 C 435.825 616.437 434.671 617.069 433.853 616.734 C 433.853 616.734 435.587 616.63 435.712 616.314 C 435.712 616.314 435.243 615.817 435.054 615.741 C 435.054 615.741 434.216 616.171 433.758 615.939 C 433.758 615.939 434.903 615.747 434.91 615.62 C 434.91 615.62 434.127 615.135 433.599 615.099 C 434.086 615.108 434.562 615.244 434.98 615.494 C 434.915 615.201 434.766 614.934 434.551 614.726 C 434.551 614.726 435.096 614.787 435.17 615.613 C 435.17 615.613 435.767 616.016 435.805 616.128 C 435.805 616.128 435.847 615.302 435.608 614.81 C 435.608 614.81 436.134 615.232 435.937 616.274 L 436.428 616.837 C 436.428 616.837 436.539 615.747 436.361 615.294 C 436.361 615.294 436.83 615.807 436.541 616.989 L 436.937 617.605 C 436.937 617.605 437.106 616.674 437.016 616.126 C 437.016 616.126 437.348 616.698 437.044 617.787 L 437.262 618.231 C 437.262 618.231 437.372 617.548 437.386 617.349 C 437.386 617.349 437.455 617.138 437.455 617.138 C 437.541 617.564 437.507 618.007 437.356 618.415 C 437.356 618.415 437.741 619.359 437.804 619.341 Z " fill="rgb(60,154,223)"/></g></g></svg>