<?xml version="1.0" encoding="UTF-8" standalone="no"?><!-- Generator: Gravit.io --><svg xmlns="http://www.w3.org/2000/svg" xmlns:xlink="http://www.w3.org/1999/xlink" style="isolation:isolate" viewBox="383.069 437.98 21.932 17.796" width="21.932pt" height="17.796pt"><g><path d=" M 391.069 437.98 L 385.069 437.98 C 383.959 437.98 383.069 438.87 383.069 439.98 L 383.069 451.98 C 383.069 453.077 383.972 453.98 385.069 453.98 L 401.069 453.98 C 402.166 453.98 403.069 453.077 403.069 451.98 L 403.069 441.98 C 403.069 440.87 402.169 439.98 401.069 439.98 L 393.069 439.98 L 391.069 437.98 Z " fill="rgb(255,255,255)" fill-opacity="0.19"/><path d=" M 401.015 447.139 L 401.015 445.81 L 398.357 445.81 L 398.357 449.464 C 398.078 449.258 397.74 449.132 397.361 449.132 C 396.92 449.132 396.498 449.307 396.186 449.619 C 395.875 449.93 395.7 450.353 395.7 450.793 C 395.7 451.234 395.875 451.656 396.186 451.968 C 396.498 452.279 396.92 452.454 397.361 452.454 C 397.801 452.454 398.224 452.279 398.535 451.968 C 398.847 451.656 399.022 451.234 399.022 450.793 L 399.022 447.139 L 401.015 447.139 M 398.357 442.488 C 400.12 442.488 401.809 443.188 403.055 444.434 C 404.301 445.68 405.001 447.37 405.001 449.132 C 405.001 450.894 404.301 452.584 403.055 453.83 C 401.809 455.076 400.12 455.776 398.357 455.776 C 396.595 455.776 394.905 455.076 393.659 453.83 C 392.413 452.584 391.713 450.894 391.713 449.132 C 391.713 447.37 392.413 445.68 393.659 444.434 C 394.905 443.188 396.595 442.488 398.357 442.488 Z " fill-rule="evenodd" fill="rgb(255,255,255)"/></g></svg>