<?xml version="1.0" encoding="UTF-8" standalone="no"?><!-- Generator: Gravit.io --><svg xmlns="http://www.w3.org/2000/svg" xmlns:xlink="http://www.w3.org/1999/xlink" style="isolation:isolate" viewBox="1144.4 700.952 23.1 23.097" width="23.1pt" height="23.097pt"><path d=" M 1158.592 708.676 L 1159.772 709.857 L 1148.147 721.482 L 1146.966 721.482 L 1146.966 720.302 L 1158.592 708.676 Z  M 1163.211 700.952 C 1162.89 700.952 1162.557 701.08 1162.313 701.324 L 1159.965 703.672 L 1164.777 708.484 L 1167.125 706.136 C 1167.365 705.896 1167.5 705.57 1167.5 705.231 C 1167.5 704.891 1167.365 704.566 1167.125 704.326 L 1164.122 701.324 C 1163.866 701.067 1163.545 700.952 1163.211 700.952 Z  M 1158.592 705.045 L 1144.4 719.237 L 1144.4 724.048 L 1149.212 724.048 L 1163.404 709.857 L 1158.592 705.045 Z " fill="rgb(255,255,255)"/></svg>