<?xml version="1.0" encoding="UTF-8" standalone="no"?><!-- Generator: Gravit.io --><svg xmlns="http://www.w3.org/2000/svg" xmlns:xlink="http://www.w3.org/1999/xlink" style="isolation:isolate" viewBox="42.5 254.789 40 40" width="40pt" height="40pt"><path d=" M 71.831 273.337 L 57.637 264.708 C 56.363 263.998 54.758 264.91 54.758 266.401 L 54.758 283.176 C 54.758 284.66 56.355 285.579 57.637 284.869 L 71.831 276.724 C 73.153 275.99 73.153 274.079 71.831 273.337 Z  M 82.5 274.789 C 82.5 263.74 73.548 254.789 62.5 254.789 C 51.452 254.789 42.5 263.74 42.5 274.789 C 42.5 285.837 51.452 294.789 62.5 294.789 C 73.548 294.789 82.5 285.837 82.5 274.789 Z  M 46.371 274.789 C 46.371 265.877 53.589 258.66 62.5 258.66 C 71.411 258.66 78.629 265.877 78.629 274.789 C 78.629 283.7 71.411 290.918 62.5 290.918 C 53.589 290.918 46.371 283.7 46.371 274.789 Z " fill="rgb(255,255,255)"/></svg>