<?xml version="1.0" encoding="UTF-8" standalone="no"?><!-- Generator: Gravit.io --><svg xmlns="http://www.w3.org/2000/svg" xmlns:xlink="http://www.w3.org/1999/xlink" style="isolation:isolate" viewBox="41.154 497.5 39 39" width="39pt" height="39pt"><path d=" M 62.604 507.25 L 58.704 507.25 L 58.704 515.05 L 50.904 515.05 L 50.904 518.95 L 58.704 518.95 L 58.704 526.75 L 62.604 526.75 L 62.604 518.95 L 70.404 518.95 L 70.404 515.05 L 62.604 515.05 L 62.604 507.25 Z  M 60.654 497.5 C 49.89 497.5 41.154 506.236 41.154 517 C 41.154 527.764 49.89 536.5 60.654 536.5 C 71.418 536.5 80.154 527.764 80.154 517 C 80.154 506.236 71.418 497.5 60.654 497.5 Z  M 60.654 532.6 C 52.054 532.6 45.054 525.599 45.054 517 C 45.054 508.401 52.054 501.4 60.654 501.4 C 69.253 501.4 76.254 508.401 76.254 517 C 76.254 525.599 69.253 532.6 60.654 532.6 Z " fill="rgb(255,255,255)"/></svg>