<?xml version="1.0" encoding="UTF-8" standalone="no"?><!-- Generator: Gravit.io --><svg xmlns="http://www.w3.org/2000/svg" xmlns:xlink="http://www.w3.org/1999/xlink" style="isolation:isolate" viewBox="685 38.274 17.49 17.49" width="17.49pt" height="17.49pt"><path d=" M 697.5 49.274 L 696.71 49.274 L 696.43 49.004 C 697.444 47.828 698.001 46.326 698 44.774 C 698 41.184 695.09 38.274 691.5 38.274 C 687.91 38.274 685 41.184 685 44.774 C 685 48.364 687.91 51.274 691.5 51.274 C 693.11 51.274 694.59 50.684 695.73 49.704 L 696 49.984 L 696 50.774 L 701 55.764 L 702.49 54.274 L 697.5 49.274 Z  M 691.5 49.274 C 689.01 49.274 687 47.264 687 44.774 C 687 42.284 689.01 40.274 691.5 40.274 C 693.99 40.274 696 42.284 696 44.774 C 696 47.264 693.99 49.274 691.5 49.274 Z " fill="rgb(255,255,255)"/></svg>