<?xml version="1.0" encoding="UTF-8"?>
<svg width="20px" height="20px" viewBox="0 0 20 20" version="1.1" xmlns="http://www.w3.org/2000/svg" xmlns:xlink="http://www.w3.org/1999/xlink">
    <!-- Generator: Sketch 53.2 (72643) - https://sketchapp.com -->
    <title>Icon/settings</title>
    <desc>Created with Sketch.</desc>
    <g id="Icons" stroke="none" stroke-width="1" fill="none" fill-rule="evenodd">
        <g id="Icon/settings" fill="#3C3F49" fill-rule="nonzero">
            <path d="M5,2 C3.34314575,2 2,3.34314575 2,5 C2,6.65685425 3.34314575,8 5,8 L15,8 C16.6568542,8 18,6.65685425 18,5 C18,3.34314575 16.6568542,2 15,2 L5,2 Z M5,1 L15,1 C17.209139,1 19,2.790861 19,5 C19,7.209139 17.209139,9 15,9 L5,9 C2.790861,9 1,7.209139 1,5 C1,2.790861 2.790861,1 5,1 Z M5,12 C3.34314575,12 2,13.3431458 2,15 C2,16.6568542 3.34314575,18 5,18 L15,18 C16.6568542,18 18,16.6568542 18,15 C18,13.3431458 16.6568542,12 15,12 L5,12 Z M5,11 L15,11 C17.209139,11 19,12.790861 19,15 C19,17.209139 17.209139,19 15,19 L5,19 C2.790861,19 1,17.209139 1,15 C1,12.790861 2.790861,11 5,11 Z M5,17 C3.8954305,17 3,16.1045695 3,15 C3,13.8954305 3.8954305,13 5,13 C6.1045695,13 7,13.8954305 7,15 C7,16.1045695 6.1045695,17 5,17 Z M15,6 C15.5522847,6 16,5.55228475 16,5 C16,4.44771525 15.5522847,4 15,4 C14.4477153,4 14,4.44771525 14,5 C14,5.55228475 14.4477153,6 15,6 Z M15,7 C13.8954305,7 13,6.1045695 13,5 C13,3.8954305 13.8954305,3 15,3 C16.1045695,3 17,3.8954305 17,5 C17,6.1045695 16.1045695,7 15,7 Z" id="Combined-Shape" fill="white"></path>
        </g>
    </g>
</svg>